<?xml version="1.0" standalone="no"?>
<!DOCTYPE svg PUBLIC "-//W3C//DTD SVG 20010904//EN"
 "http://www.w3.org/TR/2001/REC-SVG-20010904/DTD/svg10.dtd">
<svg version="1.0" xmlns="http://www.w3.org/2000/svg"
 width="920.000000pt" height="920.000000pt" viewBox="0 0 920.000000 920.000000"
 preserveAspectRatio="xMidYMid meet">
<metadata>
Created by potrace 1.14, written by Peter Selinger 2001-2017
</metadata>
<g transform="translate(0.000000,920.000000) scale(0.100000,-0.100000)"
fill="#000000" stroke="none">
<path d="M4330 8414 c-19 -2 -98 -11 -175 -20 -1084 -117 -2099 -746 -2708
-1677 -596 -911 -770 -2036 -476 -3079 345 -1225 1287 -2199 2495 -2578 113
-36 189 -58 224 -65 8 -2 67 -15 130 -28 63 -14 162 -32 220 -41 58 -8 123
-18 145 -22 67 -10 674 -13 770 -4 156 16 305 40 465 75 1358 301 2448 1340
2815 2684 45 163 92 412 115 601 15 126 21 558 9 690 -59 659 -271 1270 -626
1797 -474 706 -1159 1226 -1963 1490 -223 73 -463 126 -720 159 -110 14 -642
27 -720 18z m-511 -2099 c10 -11 54 -502 45 -516 -3 -5 -262 -9 -595 -9 l-589
0 0 -455 0 -455 533 -2 532 -3 3 -254 c2 -179 -1 -258 -9 -267 -9 -12 -103
-14 -535 -14 l-524 0 0 -673 c0 -510 -3 -676 -12 -685 -17 -17 -469 -17 -486
0 -9 9 -12 394 -12 1670 0 1567 1 1658 18 1667 23 14 1617 10 1631 -4z m719
-817 c23 -30 223 -1107 308 -1665 22 -139 42 -253 45 -253 3 0 12 39 19 88 27
187 146 794 264 1347 24 116 57 266 71 335 15 69 30 132 34 140 7 13 49 15
266 18 142 1 262 -1 266 -5 23 -23 258 -1265 330 -1742 16 -107 31 -196 33
-198 5 -5 15 57 61 352 89 578 282 1570 308 1587 7 4 115 8 240 8 174 0 229
-3 232 -13 9 -21 -600 -2508 -616 -2518 -16 -10 -478 -13 -503 -3 -21 8 -24
22 -105 425 -107 531 -182 927 -246 1309 -14 85 -28 156 -29 158 -2 1 -22 -95
-45 -215 -51 -263 -121 -594 -202 -958 -33 -148 -81 -362 -106 -475 -25 -113
-51 -215 -59 -227 -14 -23 -16 -23 -263 -23 -224 0 -249 2 -263 18 -8 9 -29
80 -46 157 -17 77 -79 356 -137 620 -58 264 -123 559 -144 655 -170 762 -233
1060 -228 1074 6 14 36 16 255 16 188 0 252 -3 260 -12z"/>
<path d="M4988 473 c7 -3 16 -2 19 1 4 3 -2 6 -13 5 -11 0 -14 -3 -6 -6z"/>
</g>
</svg>
